PathFileType	4	(X/Y/Z)	\\147.46.242.158\로컬 디스크 (e)\MOCAP Data\Iguana Capture\iguana\Project 2\Capture day 7\Session 2\Take08.trc
DataRate	CameraRate	NumFrames	NumMarkers	Units	OrigDataRate	OrigDataStartFrame	OrigNumFrames
120.0	120.0	18	23	mm	120.0	325	29130
Frame#	Time	ana:head1			ana:head2			ana:bone1			ana:bone2			ana:bone3			ana:tail1			ana:tail2			ana:tail3			ana:tail4			ana:Rforefoot1			ana:Rforefoot2			ana:Rforefoot3			ana:Lforefoot1			ana:Lforefoot2			ana:Lforefoot3			ana:RhindLeg1			ana:RhindLeg2			ana:RhindLeg3			ana:RhindLeg4			ana:LhindLeg1			ana:LhindLeg2			ana:LhindLeg3			ana:LhindLeg4			
		X1	Y1	Z1	X2	Y2	Z2	X3	Y3	Z3	X4	Y4	Z4	X5	Y5	Z5	X6	Y6	Z6	X7	Y7	Z7	X8	Y8	Z8	X9	Y9	Z9	X10	Y10	Z10	X11	Y11	Z11	X12	Y12	Z12	X13	Y13	Z13	X14	Y14	Z14	X15	Y15	Z15	X16	Y16	Z16	X17	Y17	Z17	X18	Y18	Z18	X19	Y19	Z19	X20	Y20	Z20	X21	Y21	Z21	X22	Y22	Z22	X23	Y23	Z23	

1826	15.208	4.91748	-66.38257	49.66269	9.75685	-57.24273	50.44620	21.33242	-37.63050	42.39507	34.03728	-12.32197	40.09198	51.62341	15.98461	34.55832	65.45778	46.42788	27.91479	83.08527	77.09296	17.61364	108.91344	111.79392	7.75552	136.91418	140.33281	5.46972	9.21130	-34.09217	27.26996	5.59948	-19.10855	26.30869	3.46119	-12.79351	10.15826	31.76994	-46.88197	26.44881	43.75360	-48.24953	19.76878	37.47004	-51.83121	3.61499	42.61161	22.70232	26.91527	27.06984	29.70920	17.65081	35.92174	40.58271	4.17964	28.78248	31.18849	4.70059	60.59887	14.15308	28.23944	78.23645	12.26736	24.72637	91.20200	32.23079	18.83399	99.09213	33.58940	10.78093	
1827	15.217	4.37829	-68.20103	49.91915	9.38933	-59.24024	50.56092	20.65135	-39.23532	42.42093	32.58998	-13.68816	39.93209	50.13901	14.54919	34.31763	64.65455	44.68597	27.60288	82.27212	75.31219	17.42876	107.81869	110.25214	7.72478	135.59726	139.04506	5.51639	8.24225	-36.65595	27.76439	3.54647	-21.98869	27.31504	-1.15561	-17.57348	10.96001	31.56945	-48.35470	26.75184	43.45235	-48.63404	19.96474	37.51532	-51.84421	3.58790	41.37260	21.49125	26.59222	26.50500	29.67399	17.06293	36.15152	40.33655	4.16079	28.94370	31.29293	4.63502	59.16888	12.45306	27.91723	76.63287	9.50611	24.88077	88.65888	29.87848	18.49781	96.92257	30.84983	10.96902	
1828	15.225	3.92639	-69.96323	50.13718	9.07697	-61.14941	50.63691	19.97787	-40.82867	42.43417	31.24331	-15.02562	39.75331	48.69078	13.13006	34.06063	63.90718	42.98786	27.31693	81.51836	73.56229	17.28274	106.77794	108.74043	7.68846	134.32901	137.79588	5.56823	7.41462	-39.09904	28.14255	1.68695	-24.85452	28.20733	-5.28644	-22.54899	12.06884	31.40316	-49.76154	26.99650	43.15161	-49.01659	20.17097	37.56648	-51.90320	3.63486	40.22212	20.29901	26.30119	26.00064	29.59368	16.49493	36.52023	40.04181	4.05996	29.10781	31.35165	4.53170	57.81239	10.80003	27.63302	74.97366	6.61473	25.13038	86.18151	27.12551	18.16141	94.82207	27.62565	11.18792	
1829	15.233	3.57651	-71.71867	50.25603	8.76083	-62.92709	50.71718	19.34579	-42.41134	42.45507	30.01646	-16.34361	39.56670	47.30371	11.80377	33.83991	63.19409	41.30761	27.09663	80.82217	71.85975	17.16407	105.80494	107.26398	7.68341	133.10001	136.57634	5.62517	6.69627	-41.42374	28.45736	0.00503	-27.70914	28.90603	-8.92539	-27.65885	13.41546	31.20923	-51.03386	27.13835	42.85955	-49.41420	20.38827	37.59309	-52.02233	3.75132	39.16958	19.13904	26.04885	25.55024	29.46344	16.04259	36.81190	39.76570	4.10556	29.20097	31.36066	4.45389	56.50544	9.17655	27.43164	73.21535	3.60483	25.47990	83.85348	23.92763	17.79879	92.84748	23.81872	11.52716	
1830	15.242	3.27063	-73.38902	50.32484	8.46259	-64.61330	50.78022	18.73979	-43.97664	42.48044	28.92543	-17.65318	39.40017	45.98190	10.50892	33.64404	62.51143	39.64932	26.95538	80.18829	70.18496	17.13561	104.90977	105.81420	7.70503	131.90501	135.39830	5.69093	6.11681	-43.61204	28.66508	-1.54331	-30.52351	29.39980	-11.75206	-32.94032	14.66357	30.97653	-52.16267	27.20502	42.57936	-49.84747	20.62610	37.58608	-52.21142	3.94358	38.22684	18.00116	25.83970	25.17915	29.24117	15.73868	37.11123	39.48162	4.19197	29.20234	31.30108	4.38602	55.27100	7.62861	27.29602	71.35480	0.53184	25.93493	81.77488	20.44930	17.50268	90.99013	19.46243	11.98426	
1831	15.250	2.99380	-74.98543	50.37318	8.17812	-66.15305	50.86292	18.16478	-45.50996	42.49115	27.93904	-18.95640	39.24284	44.76898	9.18154	33.46648	61.86945	38.00852	26.92309	79.61561	68.55116	17.18458	104.06996	104.39352	7.77297	130.73271	134.25229	5.74608	5.61151	-45.70538	28.75769	-2.95793	-33.29239	29.56505	-13.92516	-38.27755	15.81964	30.64854	-53.18226	27.21553	42.32394	-50.31192	20.86196	37.53910	-52.39974	4.14583	37.34926	16.87263	25.69564	24.87142	28.92734	15.63461	37.23600	39.28292	4.53140	29.11122	31.10469	4.26045	54.04736	6.07582	27.26702	69.37614	-2.58819	26.51653	79.93371	16.72122	17.33377	89.17723	14.69185	12.52495	
1832	15.258	2.70156	-76.51917	50.41930	7.97302	-67.62521	50.89266	17.64906	-46.99907	42.50291	27.00556	-20.25814	39.13080	43.64286	7.88472	33.33343	61.26573	36.39346	26.96218	79.11633	66.94460	17.31712	103.28055	102.99662	7.88703	129.60544	133.14203	5.78927	5.16230	-47.73604	28.74947	-4.31500	-36.05300	29.45706	-15.57835	-43.57169	16.88725	30.28002	-54.14328	27.22704	42.06752	-50.80535	21.09165	37.47503	-52.58646	4.34530	36.54129	15.75247	25.62088	24.63076	28.48673	15.67634	37.23604	39.09998	5.06216	28.95308	30.76686	4.15728	52.87951	4.55892	27.33248	67.29565	-5.74202	27.13243	78.30521	12.81563	17.29801	87.32841	9.45501	13.21779	
1833	15.267	2.40478	-77.99620	50.48495	7.84816	-69.02030	50.88095	17.17300	-48.39725	42.46967	26.12326	-21.53845	39.04502	42.65851	6.50971	33.29105	60.70825	34.80882	27.07929	78.67027	65.34729	17.52788	102.52728	101.62873	8.04556	128.50685	132.05760	5.81442	4.71397	-49.71453	28.68360	-5.68288	-38.86434	29.11976	-16.76679	-48.72404	17.82092	29.90853	-55.05691	27.26200	41.81028	-51.32572	21.31685	37.36221	-52.78275	4.53160	35.79614	14.63989	25.59942	24.46290	27.94787	15.86380	37.11831	38.92150	5.75869	28.82153	30.37237	4.03967	51.73414	3.04194	27.45020	65.12508	-8.86672	27.76724	76.92799	8.76502	17.42048	85.45056	3.84813	14.00456	
1834	15.275	2.11949	-79.43027	50.54491	7.78351	-70.35498	50.83305	16.73023	-49.73549	42.41510	25.25359	-22.79956	38.98930	41.75981	5.30830	33.30139	60.20375	33.24400	27.26258	78.27856	63.77932	17.78248	101.80730	100.27459	8.25501	127.45193	130.97252	5.80656	4.27521	-51.65755	28.54863	-6.97171	-41.77743	28.56227	-17.59538	-53.62176	18.59642	29.54333	-55.94940	27.27795	41.53627	-51.84631	21.51477	37.29528	-52.90036	4.63360	35.08068	13.52397	25.65194	24.34546	27.32862	16.11349	36.95969	38.71038	6.56368	28.71402	29.94618	3.95579	50.60947	1.56433	27.66391	62.86131	-11.88243	28.35591	75.69444	4.53714	17.68309	83.45291	-1.90677	14.84447	
1835	15.283	1.83812	-80.83645	50.57775	7.60915	-71.65218	50.85751	16.31356	-51.04144	42.34705	24.42383	-24.04751	38.93948	40.95983	4.14453	33.37702	59.73672	31.69730	27.48892	77.90173	62.23775	18.07942	101.11187	98.94172	8.48840	126.44287	129.88428	5.79031	3.82856	-53.58016	28.38682	-8.27134	-44.83857	27.91758	-18.14807	-58.28658	19.20827	29.24500	-56.89008	27.36241	41.27082	-52.34891	21.71397	37.22095	-53.02763	4.73737	34.40202	12.41778	25.75440	24.26475	26.64996	16.40728	36.71187	38.48927	7.46859	28.66987	29.58576	3.95575	49.47391	0.08036	27.90893	60.51994	-14.72656	28.85686	74.56075	0.15418	17.95233	81.20827	-7.67486	15.65539	
1836	15.292	1.56645	-82.19950	50.58876	7.34760	-72.93385	50.89411	15.90678	-52.32038	42.28355	23.62655	-25.27777	38.90307	40.19807	3.00136	33.42978	59.29440	30.18922	27.74442	77.53571	60.72631	18.40165	100.44036	97.61301	8.71713	125.47907	128.79144	5.76790	3.39066	-55.49248	28.18385	-9.51156	-48.03983	27.23037	-18.40846	-62.63660	19.49822	28.96556	-57.84589	27.46285	40.96863	-52.86843	21.91025	37.13366	-53.16171	4.86101	33.74895	11.30960	25.87742	24.17996	25.93534	16.71226	36.60211	38.18330	8.26339	28.62742	29.28689	4.06509	48.35592	-1.39123	28.12918	58.16356	-17.29718	29.32301	73.38025	-4.31115	18.15585	78.68842	-13.25862	16.33712	
1837	15.300	1.30191	-83.53609	50.58402	7.00137	-74.21057	50.95468	15.49317	-53.59290	42.22849	22.85770	-26.50793	38.87296	39.45058	1.99305	33.54380	58.86225	28.70553	28.02350	77.16630	59.24367	18.73545	99.79114	96.28877	8.96659	124.56920	127.67635	5.74764	2.93696	-57.38977	28.00173	-10.62637	-51.33393	26.51180	-18.53283	-66.72287	19.57006	28.73423	-58.85671	27.57643	40.61583	-53.39750	22.08749	37.03932	-53.28950	4.96925	33.10631	10.20056	26.01624	24.01566	25.22628	17.02442	36.44830	37.85698	9.07341	28.58215	29.08194	4.28693	47.25225	-2.86834	28.36492	55.78320	-19.60916	29.69429	72.00288	-8.74541	18.21881	75.85136	-18.47974	16.86413	
1838	15.308	1.05789	-84.85027	50.56519	6.62155	-75.52647	51.00516	15.05649	-54.86698	42.18187	22.10533	-27.73556	38.85083	38.69981	1.03448	33.59375	58.40104	27.24364	28.28542	76.78607	57.78323	19.05059	99.16708	94.95737	9.19787	123.69466	126.52211	5.76144	2.51032	-59.25657	27.82705	-11.60373	-54.64286	25.80806	-18.52279	-70.59921	19.40248	28.52763	-59.88993	27.68357	40.24872	-53.97660	22.27439	36.93417	-53.41483	5.06644	32.47556	9.07819	26.15811	23.83464	24.51108	17.36292	36.34450	37.46277	9.76447	28.50489	29.02062	4.60756	46.18186	-4.28723	28.57466	53.42593	-21.68473	30.04157	70.37532	-12.97458	18.07315	72.74458	-23.22499	17.18159	
1839	15.317	0.79065	-86.14893	50.54302	6.33559	-76.86650	50.97233	14.61419	-56.14940	42.13294	21.36712	-28.94880	38.82263	38.01973	-0.01928	33.64883	57.93225	25.80230	28.53103	76.37550	56.32983	19.37355	98.56779	93.61202	9.42275	122.86972	125.33232	5.78325	2.08691	-61.09195	27.65934	-12.28521	-57.91416	25.03545	-18.57059	-74.25837	19.09097	28.27932	-60.96702	27.80416	39.86555	-54.66779	22.45581	36.82092	-53.53546	5.16218	31.83835	7.92863	26.30138	23.61378	23.78126	17.70912	36.19351	37.03246	10.45008	28.43255	28.96875	4.90070	45.16651	-5.68538	28.76135	51.12952	-23.60983	30.34964	68.52863	-16.83457	17.76661	69.48447	-27.31217	17.18884	
1840	15.325	0.50080	-87.44918	50.50989	6.09278	-78.20465	50.91697	14.13962	-57.46106	42.10149	20.61498	-30.17033	38.79028	37.29328	-1.15488	33.65018	57.43832	24.36018	28.75792	75.94411	54.86285	19.66862	97.97908	92.24731	9.63342	122.09258	124.09383	5.82583	1.67003	-62.90083	27.50135	-12.69807	-61.10352	24.23094	-18.73935	-77.69432	18.67626	27.97723	-62.09437	27.89228	39.47164	-55.44544	22.63047	36.78711	-53.83127	5.39214	31.19377	6.75840	26.44186	23.37611	23.01598	18.08244	36.01772	36.53925	11.13469	28.25403	28.93658	5.27514	44.19281	-7.06422	28.94100	48.95459	-25.45106	30.55483	66.43353	-20.30944	17.28154	66.21826	-30.81897	16.93057	
1841	15.333	0.17562	-88.75999	50.47875	5.84848	-79.54187	50.84670	13.63661	-58.78876	42.04239	19.85206	-31.37471	38.74278	36.59649	-2.41138	33.69398	56.90568	22.90564	28.97432	75.48366	53.36578	19.95835	97.39374	90.85425	9.83592	121.34348	122.80125	5.86127	1.22731	-64.66079	27.34816	-12.88805	-64.17038	23.37676	-18.93153	-80.89238	18.01288	27.60486	-63.23932	27.97801	39.06057	-56.33507	22.80888	36.82109	-54.26350	5.72094	30.54100	5.56458	26.56687	23.12317	22.19755	18.48556	35.88043	35.96649	11.78772	28.09859	28.89155	5.67905	43.23699	-8.43136	29.07722	46.97436	-27.24018	30.62730	63.83202	-23.07215	16.52035	63.12859	-33.81333	16.38725	
1842	15.342	-0.20701	-90.08340	50.44728	5.63410	-80.88471	50.71999	13.11529	-60.14934	42.00035	19.04285	-32.60210	38.69678	35.79643	-3.68826	33.80339	56.33526	21.43362	29.17507	75.01143	51.85010	20.23705	96.82590	89.41807	10.05203	120.60989	121.45367	5.87373	0.75139	-66.38258	27.17734	-12.90159	-67.04959	22.44879	-19.14283	-83.79984	17.04181	27.14093	-64.36603	27.98540	38.55882	-57.28376	22.96089	36.64867	-54.62499	5.95120	29.84544	4.34681	26.71785	22.91645	21.29419	18.89530	35.78089	35.27649	12.43853	27.91577	28.78563	6.14311	42.35084	-9.77940	29.15808	45.24265	-28.98994	30.56775	60.94377	-25.28142	15.54792	60.42084	-36.34837	15.57625	
1843	15.350	-0.65760	-91.43151	50.41156	5.17591	-82.21316	50.69830	12.52996	-61.51654	41.90516	18.19958	-33.83383	38.62954	34.89938	-4.99547	33.96715	55.70168	19.93939	29.38558	74.50174	50.31034	20.53512	96.26831	87.94083	10.26819	119.90145	120.05164	5.86730	0.23102	-68.04356	26.94198	-12.88835	-69.69669	21.44409	-19.37282	-86.38519	15.70580	26.63480	-65.54180	27.96726	37.98373	-58.25641	23.10624	36.14041	-54.72105	5.84075	29.12113	3.09599	26.88602	22.69018	20.30128	19.32063	35.69278	34.47803	13.11914	27.81357	28.57343	6.57367	41.44722	-11.14441	29.20418	43.79346	-30.64771	30.29847	58.36705	-27.23730	14.44027	58.19109	-38.51697	14.47728	
